<mxfile host="app.diagrams.net" modified="2023-05-25T03:22:48.881Z" agent="Mozilla/5.0 (Windows NT 10.0; Win64; x64) AppleWebKit/537.36 (KHTML, like Gecko) Chrome/113.0.0.0 Safari/537.36" etag="1uZiBQ8O-MjeUAPhpI6B" version="21.3.3" type="github">
  <diagram name="第 1 页" id="o4HZtcVuzK9y0ybJSj02">
    <mxGraphModel dx="1877" dy="549" grid="1" gridSize="10" guides="1" tooltips="1" connect="1" arrows="1" fold="1" page="1" pageScale="1" pageWidth="827" pageHeight="1169" math="0" shadow="0">
      <root>
        <mxCell id="0" />
        <mxCell id="1" parent="0" />
        <mxCell id="XytnYDIH3-JPXLEUSZ4J-5" style="edgeStyle=orthogonalEdgeStyle;rounded=0;orthogonalLoop=1;jettySize=auto;html=1;exitX=0;exitY=0.5;exitDx=0;exitDy=0;entryX=0.5;entryY=0;entryDx=0;entryDy=0;" edge="1" parent="1" source="XytnYDIH3-JPXLEUSZ4J-1" target="XytnYDIH3-JPXLEUSZ4J-3">
          <mxGeometry relative="1" as="geometry" />
        </mxCell>
        <mxCell id="XytnYDIH3-JPXLEUSZ4J-6" style="edgeStyle=orthogonalEdgeStyle;rounded=0;orthogonalLoop=1;jettySize=auto;html=1;entryX=0.5;entryY=0;entryDx=0;entryDy=0;" edge="1" parent="1" source="XytnYDIH3-JPXLEUSZ4J-1" target="XytnYDIH3-JPXLEUSZ4J-4">
          <mxGeometry relative="1" as="geometry" />
        </mxCell>
        <mxCell id="XytnYDIH3-JPXLEUSZ4J-1" value="在线商城" style="rounded=0;whiteSpace=wrap;html=1;" vertex="1" parent="1">
          <mxGeometry x="360" y="60" width="120" height="60" as="geometry" />
        </mxCell>
        <mxCell id="XytnYDIH3-JPXLEUSZ4J-11" style="edgeStyle=orthogonalEdgeStyle;rounded=0;orthogonalLoop=1;jettySize=auto;html=1;" edge="1" parent="1" source="XytnYDIH3-JPXLEUSZ4J-3" target="XytnYDIH3-JPXLEUSZ4J-8">
          <mxGeometry relative="1" as="geometry" />
        </mxCell>
        <mxCell id="XytnYDIH3-JPXLEUSZ4J-12" style="edgeStyle=orthogonalEdgeStyle;rounded=0;orthogonalLoop=1;jettySize=auto;html=1;exitX=0.5;exitY=1;exitDx=0;exitDy=0;entryX=0.5;entryY=0;entryDx=0;entryDy=0;" edge="1" parent="1" source="XytnYDIH3-JPXLEUSZ4J-3" target="XytnYDIH3-JPXLEUSZ4J-9">
          <mxGeometry relative="1" as="geometry" />
        </mxCell>
        <mxCell id="XytnYDIH3-JPXLEUSZ4J-13" style="edgeStyle=orthogonalEdgeStyle;rounded=0;orthogonalLoop=1;jettySize=auto;html=1;exitX=0.5;exitY=1;exitDx=0;exitDy=0;" edge="1" parent="1" source="XytnYDIH3-JPXLEUSZ4J-3" target="XytnYDIH3-JPXLEUSZ4J-7">
          <mxGeometry relative="1" as="geometry" />
        </mxCell>
        <mxCell id="XytnYDIH3-JPXLEUSZ4J-3" value="用户端" style="rounded=0;whiteSpace=wrap;html=1;" vertex="1" parent="1">
          <mxGeometry x="200" y="120" width="120" height="60" as="geometry" />
        </mxCell>
        <mxCell id="XytnYDIH3-JPXLEUSZ4J-14" style="edgeStyle=orthogonalEdgeStyle;rounded=0;orthogonalLoop=1;jettySize=auto;html=1;entryX=0.5;entryY=0;entryDx=0;entryDy=0;" edge="1" parent="1" source="XytnYDIH3-JPXLEUSZ4J-4" target="XytnYDIH3-JPXLEUSZ4J-10">
          <mxGeometry relative="1" as="geometry" />
        </mxCell>
        <mxCell id="XytnYDIH3-JPXLEUSZ4J-4" value="管理员端" style="rounded=0;whiteSpace=wrap;html=1;" vertex="1" parent="1">
          <mxGeometry x="520" y="120" width="120" height="60" as="geometry" />
        </mxCell>
        <mxCell id="XytnYDIH3-JPXLEUSZ4J-19" style="edgeStyle=orthogonalEdgeStyle;rounded=0;orthogonalLoop=1;jettySize=auto;html=1;" edge="1" parent="1" source="XytnYDIH3-JPXLEUSZ4J-7" target="XytnYDIH3-JPXLEUSZ4J-17">
          <mxGeometry relative="1" as="geometry" />
        </mxCell>
        <mxCell id="XytnYDIH3-JPXLEUSZ4J-20" style="edgeStyle=orthogonalEdgeStyle;rounded=0;orthogonalLoop=1;jettySize=auto;html=1;exitX=0.5;exitY=1;exitDx=0;exitDy=0;entryX=0.5;entryY=0;entryDx=0;entryDy=0;" edge="1" parent="1" source="XytnYDIH3-JPXLEUSZ4J-7" target="XytnYDIH3-JPXLEUSZ4J-16">
          <mxGeometry relative="1" as="geometry" />
        </mxCell>
        <mxCell id="XytnYDIH3-JPXLEUSZ4J-7" value="用户管理" style="rounded=0;whiteSpace=wrap;html=1;" vertex="1" parent="1">
          <mxGeometry x="-120" y="240" width="120" height="60" as="geometry" />
        </mxCell>
        <mxCell id="XytnYDIH3-JPXLEUSZ4J-25" style="edgeStyle=orthogonalEdgeStyle;rounded=0;orthogonalLoop=1;jettySize=auto;html=1;" edge="1" parent="1" source="XytnYDIH3-JPXLEUSZ4J-8" target="XytnYDIH3-JPXLEUSZ4J-23">
          <mxGeometry relative="1" as="geometry" />
        </mxCell>
        <mxCell id="XytnYDIH3-JPXLEUSZ4J-27" style="edgeStyle=orthogonalEdgeStyle;rounded=0;orthogonalLoop=1;jettySize=auto;html=1;exitX=0.5;exitY=1;exitDx=0;exitDy=0;entryX=0.5;entryY=0;entryDx=0;entryDy=0;" edge="1" parent="1" source="XytnYDIH3-JPXLEUSZ4J-8" target="XytnYDIH3-JPXLEUSZ4J-24">
          <mxGeometry relative="1" as="geometry" />
        </mxCell>
        <mxCell id="XytnYDIH3-JPXLEUSZ4J-8" value="购物功能" style="rounded=0;whiteSpace=wrap;html=1;" vertex="1" parent="1">
          <mxGeometry x="200" y="240" width="120" height="60" as="geometry" />
        </mxCell>
        <mxCell id="XytnYDIH3-JPXLEUSZ4J-22" style="edgeStyle=orthogonalEdgeStyle;rounded=0;orthogonalLoop=1;jettySize=auto;html=1;exitX=0.5;exitY=1;exitDx=0;exitDy=0;" edge="1" parent="1" source="XytnYDIH3-JPXLEUSZ4J-9" target="XytnYDIH3-JPXLEUSZ4J-21">
          <mxGeometry relative="1" as="geometry" />
        </mxCell>
        <mxCell id="XytnYDIH3-JPXLEUSZ4J-9" value="商品选购" style="rounded=0;whiteSpace=wrap;html=1;" vertex="1" parent="1">
          <mxGeometry x="40" y="240" width="120" height="60" as="geometry" />
        </mxCell>
        <mxCell id="XytnYDIH3-JPXLEUSZ4J-31" style="edgeStyle=orthogonalEdgeStyle;rounded=0;orthogonalLoop=1;jettySize=auto;html=1;exitX=0.5;exitY=1;exitDx=0;exitDy=0;entryX=0.5;entryY=0;entryDx=0;entryDy=0;" edge="1" parent="1" source="XytnYDIH3-JPXLEUSZ4J-10" target="XytnYDIH3-JPXLEUSZ4J-28">
          <mxGeometry relative="1" as="geometry" />
        </mxCell>
        <mxCell id="XytnYDIH3-JPXLEUSZ4J-32" style="edgeStyle=orthogonalEdgeStyle;rounded=0;orthogonalLoop=1;jettySize=auto;html=1;exitX=0.5;exitY=1;exitDx=0;exitDy=0;entryX=0.5;entryY=0;entryDx=0;entryDy=0;" edge="1" parent="1" source="XytnYDIH3-JPXLEUSZ4J-10" target="XytnYDIH3-JPXLEUSZ4J-29">
          <mxGeometry relative="1" as="geometry" />
        </mxCell>
        <mxCell id="XytnYDIH3-JPXLEUSZ4J-10" value="后台管理" style="rounded=0;whiteSpace=wrap;html=1;" vertex="1" parent="1">
          <mxGeometry x="520" y="240" width="120" height="60" as="geometry" />
        </mxCell>
        <mxCell id="XytnYDIH3-JPXLEUSZ4J-16" value="个人信息管理" style="rounded=0;whiteSpace=wrap;html=1;" vertex="1" parent="1">
          <mxGeometry x="-280" y="350" width="120" height="60" as="geometry" />
        </mxCell>
        <mxCell id="XytnYDIH3-JPXLEUSZ4J-17" value="登录注册" style="rounded=0;whiteSpace=wrap;html=1;" vertex="1" parent="1">
          <mxGeometry x="-120" y="350" width="120" height="60" as="geometry" />
        </mxCell>
        <mxCell id="XytnYDIH3-JPXLEUSZ4J-18" style="edgeStyle=orthogonalEdgeStyle;rounded=0;orthogonalLoop=1;jettySize=auto;html=1;exitX=0.5;exitY=1;exitDx=0;exitDy=0;" edge="1" parent="1" source="XytnYDIH3-JPXLEUSZ4J-16" target="XytnYDIH3-JPXLEUSZ4J-16">
          <mxGeometry relative="1" as="geometry" />
        </mxCell>
        <mxCell id="XytnYDIH3-JPXLEUSZ4J-21" value="商品搜索/商品展示" style="rounded=0;whiteSpace=wrap;html=1;" vertex="1" parent="1">
          <mxGeometry x="40" y="350" width="120" height="60" as="geometry" />
        </mxCell>
        <mxCell id="XytnYDIH3-JPXLEUSZ4J-23" value="购物车操作" style="rounded=0;whiteSpace=wrap;html=1;" vertex="1" parent="1">
          <mxGeometry x="200" y="350" width="120" height="60" as="geometry" />
        </mxCell>
        <mxCell id="XytnYDIH3-JPXLEUSZ4J-24" value="订单操作" style="rounded=0;whiteSpace=wrap;html=1;" vertex="1" parent="1">
          <mxGeometry x="360" y="350" width="120" height="60" as="geometry" />
        </mxCell>
        <mxCell id="XytnYDIH3-JPXLEUSZ4J-28" value="商品/订单/用户管理" style="rounded=0;whiteSpace=wrap;html=1;" vertex="1" parent="1">
          <mxGeometry x="520" y="350" width="120" height="60" as="geometry" />
        </mxCell>
        <mxCell id="XytnYDIH3-JPXLEUSZ4J-29" value="数据统计" style="rounded=0;whiteSpace=wrap;html=1;" vertex="1" parent="1">
          <mxGeometry x="680" y="350" width="120" height="60" as="geometry" />
        </mxCell>
      </root>
    </mxGraphModel>
  </diagram>
</mxfile>
